{
  "accessors": [
    {
      "bufferView": 2,
      "componentType": 5126,
      "count": 338,
      "max": [
        0.16132700443267822,
        -0.59343498945236206,
        0.94134002923965454
      ],
      "min": [
        -0.16132700443267822,
        -1,
        -0.13932399451732635
      ],
      "type": "VEC3"
    },
    {
      "bufferView": 2,
      "byteOffset": 4056,
      "componentType": 5126,
      "count": 338,
      "max": [
        1,
        1,
        1
      ],
      "min": [
        -1,
        -1,
        -1
      ],
      "type": "VEC3"
    },
    {
      "bufferView": 3,
      "componentType": 5126,
      "count": 338,
      "max": [
        1,
        1,
        1,
        1
      ],
      "min": [
        -1,
        -1,
        -1,
        -1
      ],
      "type": "VEC4"
    },
    {
      "bufferView": 1,
      "componentType": 5126,
      "count": 338,
      "max": [
        0.99000000953674316,
        0.99000000953674316
      ],
      "min": [
        0.0099999997764825821,
        0.0099999997764825821
      ],
      "type": "VEC2"
    },
    {
      "bufferView": 0,
      "componentType": 5125,
      "count": 780,
      "max": [
        337
      ],
      "min": [
        0
      ],
      "type": "SCALAR"
    },
    {
      "bufferView": 2,
      "byteOffset": 8112,
      "componentType": 5126,
      "count": 173,
      "max": [
        -0.47452300786972046,
        0.49663200974464417,
        -0.20791099965572357
      ],
      "min": [
        -0.56870698928833008,
        0.3077160120010376,
        -0.40918898582458496
      ],
      "type": "VEC3"
    },
    {
      "bufferView": 2,
      "byteOffset": 10188,
      "componentType": 5126,
      "count": 173,
      "max": [
        1,
        1,
        1
      ],
      "min": [
        -1,
        -1,
        -1
      ],
      "type": "VEC3"
    },
    {
      "bufferView": 3,
      "byteOffset": 5408,
      "componentType": 5126,
      "count": 173,
      "max": [
        1,
        1,
        1,
        -1
      ],
      "min": [
        -1,
        -1,
        -1,
        -1
      ],
      "type": "VEC4"
    },
    {
      "bufferView": 1,
      "byteOffset": 2704,
      "componentType": 5126,
      "count": 173,
      "max": [
        0.98339599370956421,
        0.98856198787689209
      ],
      "min": [
        0.27752000093460083,
        0.1933010071516037
      ],
      "type": "VEC2"
    },
    {
      "bufferView": 0,
      "byteOffset": 3120,
      "componentType": 5125,
      "count": 450,
      "max": [
        172
      ],
      "min": [
        0
      ],
      "type": "SCALAR"
    },
    {
      "bufferView": 2,
      "byteOffset": 12264,
      "componentType": 5126,
      "count": 236,
      "max": [
        0.56870698928833008,
        -0.29596000909805298,
        0.24973799288272858
      ],
      "min": [
        0.47452300786972046,
        -0.60140001773834229,
        -0.40918898582458496
      ],
      "type": "VEC3"
    },
    {
      "bufferView": 2,
      "byteOffset": 15096,
      "componentType": 5126,
      "count": 236,
      "max": [
        1,
        1,
        1
      ],
      "min": [
        -1,
        -1,
        -1
      ],
      "type": "VEC3"
    },
    {
      "bufferView": 3,
      "byteOffset": 8176,
      "componentType": 5126,
      "count": 236,
      "max": [
        1,
        1,
        1,
        1
      ],
      "min": [
        -1,
        -1,
        -0.96218591928482056,
        1
      ],
      "type": "VEC4"
    },
    {
      "bufferView": 1,
      "byteOffset": 4088,
      "componentType": 5126,
      "count": 236,
      "max": [
        0.9734879732131958,
        0.98476302623748779
      ],
      "min": [
        0.27752000093460083,
        0.014954100362956524
      ],
      "type": "VEC2"
    },
    {
      "bufferView": 0,
      "byteOffset": 4920,
      "componentType": 5125,
      "count": 738,
      "max": [
        235
      ],
      "min": [
        0
      ],
      "type": "SCALAR"
    },
    {
      "bufferView": 2,
      "byteOffset": 17928,
      "componentType": 5126,
      "count": 173,
      "max": [
        0.56870698928833008,
        0.49663200974464417,
        -0.20791099965572357
      ],
      "min": [
        0.47452300786972046,
        0.3077160120010376,
        -0.40918898582458496
      ],
      "type": "VEC3"
    },
    {
      "bufferView": 2,
      "byteOffset": 20004,
      "componentType": 5126,
      "count": 173,
      "max": [
        1,
        1,
        1
      ],
      "min": [
        -1,
        -1,
        -1
      ],
      "type": "VEC3"
    },
    {
      "bufferView": 3,
      "byteOffset": 11952,
      "componentType": 5126,
      "count": 173,
      "max": [
        1,
        1,
        1,
        1
      ],
      "min": [
        -1,
        -1,
        -1,
        1
      ],
      "type": "VEC4"
    },
    {
      "bufferView": 1,
      "byteOffset": 5976,
      "componentType": 5126,
      "count": 173,
      "max": [
        0.98339599370956421,
        0.98856198787689209
      ],
      "min": [
        0.27752000093460083,
        0.1933010071516037
      ],
      "type": "VEC2"
    },
    {
      "bufferView": 0,
      "byteOffset": 7872,
      "componentType": 5125,
      "count": 450,
      "max": [
        172
      ],
      "min": [
        0
      ],
      "type": "SCALAR"
    },
    {
      "bufferView": 2,
      "byteOffset": 22080,
      "componentType": 5126,
      "count": 236,
      "max": [
        -0.47452300786972046,
        -0.29596000909805298,
        0.24973799288272858
      ],
      "min": [
        -0.56870698928833008,
        -0.60140001773834229,
        -0.40918898582458496
      ],
      "type": "VEC3"
    },
    {
      "bufferView": 2,
      "byteOffset": 24912,
      "componentType": 5126,
      "count": 236,
      "max": [
        1,
        1,
        1
      ],
      "min": [
        -1,
        -1,
        -1
      ],
      "type": "VEC3"
    },
    {
      "bufferView": 3,
      "byteOffset": 14720,
      "componentType": 5126,
      "count": 236,
      "max": [
        1,
        1,
        1,
        -1
      ],
      "min": [
        -1,
        -1,
        -0.96218574047088623,
        -1
      ],
      "type": "VEC4"
    },
    {
      "bufferView": 1,
      "byteOffset": 7360,
      "componentType": 5126,
      "count": 236,
      "max": [
        0.9734879732131958,
        0.98476302623748779
      ],
      "min": [
        0.27752000093460083,
        0.014954100362956524
      ],
      "type": "VEC2"
    },
    {
      "bufferView": 0,
      "byteOffset": 9672,
      "componentType": 5125,
      "count": 738,
      "max": [
        235
      ],
      "min": [
        0
      ],
      "type": "SCALAR"
    },
    {
      "bufferView": 2,
      "byteOffset": 27744,
      "componentType": 5126,
      "count": 8422,
      "max": [
        0.74792098999023438,
        1,
        0.36400100588798523
      ],
      "min": [
        -0.74792098999023438,
        -0.9968000054359436,
        -0.94134002923965454
      ],
      "type": "VEC3"
    },
    {
      "bufferView": 2,
      "byteOffset": 128808,
      "componentType": 5126,
      "count": 8422,
      "max": [
        1,
        1,
        1
      ],
      "min": [
        -1,
        -1,
        -1
      ],
      "type": "VEC3"
    },
    {
      "bufferView": 3,
      "byteOffset": 18496,
      "componentType": 5126,
      "count": 8422,
      "max": [
        1,
        1,
        1,
        1
      ],
      "min": [
        -1,
        -1,
        -1,
        -1
      ],
      "type": "VEC4"
    },
    {
      "bufferView": 1,
      "byteOffset": 9248,
      "componentType": 5126,
      "count": 8422,
      "max": [
        0.98377901315689087,
        0.99000000953674316
      ],
      "min": [
        0.0099999997764825821,
        0.0099999997764825821
      ],
      "type": "VEC2"
    },
    {
      "bufferView": 0,
      "byteOffset": 12624,
      "componentType": 5125,
      "count": 23376,
      "max": [
        8421
      ],
      "min": [
        0
      ],
      "type": "SCALAR"
    }
  ],
  "asset": {
    "extras": {
      "author": "Tytan Grafx (https://sketchfab.com/tylerhalterman)",
      "license": "CC-BY-4.0 (http://creativecommons.org/licenses/by/4.0/)",
      "source": "https://sketchfab.com/3d-models/weight-room-set-1-1d18318c3e81407b8321159fb3424026",
      "title": "Weight Room Set 1"
    },
    "generator": "Sketchfab-6.97.0",
    "version": "2.0"
  },
  "bufferViews": [
    {
      "buffer": 0,
      "byteLength": 106128,
      "byteOffset": 0,
      "name": "floatBufferViews",
      "target": 34963
    },
    {
      "buffer": 0,
      "byteLength": 76624,
      "byteOffset": 106128,
      "byteStride": 8,
      "name": "floatBufferViews",
      "target": 34962
    },
    {
      "buffer": 0,
      "byteLength": 229872,
      "byteOffset": 182752,
      "byteStride": 12,
      "name": "floatBufferViews",
      "target": 34962
    },
    {
      "buffer": 0,
      "byteLength": 153248,
      "byteOffset": 412624,
      "byteStride": 16,
      "name": "floatBufferViews",
      "target": 34962
    }
  ],
  "buffers": [
    {
      "byteLength": 565872,
      "uri": "scene.bin"
    }
  ],
  "images": [
    {
      "uri": "textures/Squat_Rack_baseColor.png"
    },
    {
      "uri": "textures/Squat_Rack_metallicRoughness.png"
    },
    {
      "uri": "textures/Squat_Rack_normal.png"
    },
    {
      "uri": "textures/Bench_baseColor.png"
    },
    {
      "uri": "textures/Bench_metallicRoughness.png"
    },
    {
      "uri": "textures/Bench_normal.png"
    }
  ],
  "materials": [
    {
      "alphaMode": "BLEND",
      "doubleSided": true,
      "name": "Squat_Rack",
      "normalTexture": {
        "index": 2,
        "scale": 0.25,
        "texCoord": 0
      },
      "occlusionTexture": {
        "index": 1,
        "strength": 1,
        "texCoord": 0
      },
      "pbrMetallicRoughness": {
        "baseColorFactor": [
          1,
          1,
          1,
          1
        ],
        "baseColorTexture": {
          "index": 0,
          "texCoord": 0
        },
        "metallicFactor": 1,
        "metallicRoughnessTexture": {
          "index": 1,
          "texCoord": 0
        },
        "roughnessFactor": 1
      }
    },
    {
      "alphaMode": "BLEND",
      "doubleSided": true,
      "name": "Bench",
      "normalTexture": {
        "index": 5,
        "scale": 1,
        "texCoord": 0
      },
      "occlusionTexture": {
        "index": 4,
        "strength": 1,
        "texCoord": 0
      },
      "pbrMetallicRoughness": {
        "baseColorFactor": [
          1,
          1,
          1,
          1
        ],
        "baseColorTexture": {
          "index": 3,
          "texCoord": 0
        },
        "metallicFactor": 1,
        "metallicRoughnessTexture": {
          "index": 4,
          "texCoord": 0
        },
        "roughnessFactor": 1
      }
    }
  ],
  "meshes": [
    {
      "name": "defaultMaterial",
      "primitives": [
        {
          "attributes": {
            "NORMAL": 1,
            "POSITION": 0,
            "TANGENT": 2,
            "TEXCOORD_0": 3
          },
          "indices": 4,
          "material": 1,
          "mode": 4
        }
      ]
    },
    {
      "name": "defaultMaterial",
      "primitives": [
        {
          "attributes": {
            "NORMAL": 6,
            "POSITION": 5,
            "TANGENT": 7,
            "TEXCOORD_0": 8
          },
          "indices": 9,
          "material": 0,
          "mode": 4
        }
      ]
    },
    {
      "name": "defaultMaterial",
      "primitives": [
        {
          "attributes": {
            "NORMAL": 11,
            "POSITION": 10,
            "TANGENT": 12,
            "TEXCOORD_0": 13
          },
          "indices": 14,
          "material": 0,
          "mode": 4
        }
      ]
    },
    {
      "name": "defaultMaterial",
      "primitives": [
        {
          "attributes": {
            "NORMAL": 16,
            "POSITION": 15,
            "TANGENT": 17,
            "TEXCOORD_0": 18
          },
          "indices": 19,
          "material": 0,
          "mode": 4
        }
      ]
    },
    {
      "name": "defaultMaterial",
      "primitives": [
        {
          "attributes": {
            "NORMAL": 21,
            "POSITION": 20,
            "TANGENT": 22,
            "TEXCOORD_0": 23
          },
          "indices": 24,
          "material": 0,
          "mode": 4
        }
      ]
    },
    {
      "name": "defaultMaterial",
      "primitives": [
        {
          "attributes": {
            "NORMAL": 26,
            "POSITION": 25,
            "TANGENT": 27,
            "TEXCOORD_0": 28
          },
          "indices": 29,
          "material": 0,
          "mode": 4
        }
      ]
    }
  ],
  "nodes": [
    {
      "children": [
        1
      ],
      "name": "RootNode (gltf orientation matrix)",
      "rotation": [
        -0.70710678118654746,
        -0,
        -0,
        0.70710678118654757
      ]
    },
    {
      "children": [
        2
      ],
      "name": "RootNode (model correction matrix)"
    },
    {
      "children": [
        3,
        5,
        7,
        9,
        11,
        13
      ],
      "matrix": [
        1,
        0,
        0,
        0,
        0,
        -4.3711390063094768e-08,
        0.999999999999999,
        0,
        0,
        -0.999999999999999,
        -4.3711390063094768e-08,
        0,
        0,
        0,
        0,
        1
      ],
      "name": "Collada visual scene group"
    },
    {
      "children": [
        4
      ],
      "name": "Bench_LP"
    },
    {
      "mesh": 0,
      "name": "defaultMaterial"
    },
    {
      "children": [
        6
      ],
      "name": "Weight_Rest_Left"
    },
    {
      "mesh": 1,
      "name": "defaultMaterial"
    },
    {
      "children": [
        8
      ],
      "name": "Spotter_Bar_Right"
    },
    {
      "mesh": 2,
      "name": "defaultMaterial"
    },
    {
      "children": [
        10
      ],
      "name": "Weigt_Rest_Right"
    },
    {
      "mesh": 3,
      "name": "defaultMaterial"
    },
    {
      "children": [
        12
      ],
      "name": "Spotter_Bar_Left"
    },
    {
      "mesh": 4,
      "name": "defaultMaterial"
    },
    {
      "children": [
        14
      ],
      "name": "Rack"
    },
    {
      "mesh": 5,
      "name": "defaultMaterial"
    }
  ],
  "samplers": [
    {
      "magFilter": 9729,
      "minFilter": 9987,
      "wrapS": 10497,
      "wrapT": 10497
    }
  ],
  "scene": 0,
  "scenes": [
    {
      "name": "OSG_Scene",
      "nodes": [
        0
      ]
    }
  ],
  "textures": [
    {
      "sampler": 0,
      "source": 0
    },
    {
      "sampler": 0,
      "source": 1
    },
    {
      "sampler": 0,
      "source": 2
    },
    {
      "sampler": 0,
      "source": 3
    },
    {
      "sampler": 0,
      "source": 4
    },
    {
      "sampler": 0,
      "source": 5
    }
  ]
}

