{
  "accessors": [
    {
      "bufferView": 2,
      "componentType": 5126,
      "count": 1537,
      "max": [
        0.046135801821947098,
        -0.35437500476837158,
        0.60117697715759277
      ],
      "min": [
        -0.026492299512028694,
        -0.71669799089431763,
        -0.42128300666809082
      ],
      "type": "VEC3"
    },
    {
      "bufferView": 2,
      "byteOffset": 18444,
      "componentType": 5126,
      "count": 1537,
      "max": [
        1,
        0.99860686063766479,
        0.99988025426864624
      ],
      "min": [
        -1,
        -0.9969024658203125,
        -0.99984562397003174
      ],
      "type": "VEC3"
    },
    {
      "bufferView": 3,
      "componentType": 5126,
      "count": 1537,
      "max": [
        0.82297402620315552,
        0.98984700441360474,
        0.9980739951133728,
        1
      ],
      "min": [
        -0.99999099969863892,
        -0.99989199638366699,
        -0.99645298719406128,
        1
      ],
      "type": "VEC4"
    },
    {
      "bufferView": 1,
      "componentType": 5126,
      "count": 1537,
      "max": [
        0.98850899934768677,
        0.98975497484207153
      ],
      "min": [
        0.1637289971113205,
        0.30853798985481262
      ],
      "type": "VEC2"
    },
    {
      "bufferView": 0,
      "componentType": 5125,
      "count": 6000,
      "max": [
        1536
      ],
      "min": [
        0
      ],
      "type": "SCALAR"
    },
    {
      "bufferView": 2,
      "byteOffset": 36888,
      "componentType": 5126,
      "count": 538,
      "max": [
        0.038360301405191422,
        -0.36416000127792358,
        1
      ],
      "min": [
        -0.054195601493120193,
        -0.64225500822067261,
        -0.23559300601482391
      ],
      "type": "VEC3"
    },
    {
      "bufferView": 2,
      "byteOffset": 43344,
      "componentType": 5126,
      "count": 538,
      "max": [
        1,
        1,
        1
      ],
      "min": [
        -1,
        -1,
        -1
      ],
      "type": "VEC3"
    },
    {
      "bufferView": 3,
      "byteOffset": 24592,
      "componentType": 5126,
      "count": 538,
      "max": [
        1,
        1,
        1,
        1
      ],
      "min": [
        -1,
        -1,
        -1,
        -1
      ],
      "type": "VEC4"
    },
    {
      "bufferView": 1,
      "byteOffset": 12296,
      "componentType": 5126,
      "count": 538,
      "max": [
        0.97909897565841675,
        0.98017299175262451
      ],
      "min": [
        0.22362799942493439,
        0.0099999997764825821
      ],
      "type": "VEC2"
    },
    {
      "bufferView": 0,
      "byteOffset": 24000,
      "componentType": 5125,
      "count": 1290,
      "max": [
        537
      ],
      "min": [
        0
      ],
      "type": "SCALAR"
    },
    {
      "bufferView": 2,
      "byteOffset": 49800,
      "componentType": 5126,
      "count": 192,
      "max": [
        0.11289499700069427,
        -0.36998599767684937,
        0.55374401807785034
      ],
      "min": [
        -0.14188200235366821,
        -0.41816800832748413,
        -1
      ],
      "type": "VEC3"
    },
    {
      "bufferView": 2,
      "byteOffset": 52104,
      "componentType": 5126,
      "count": 192,
      "max": [
        1,
        1,
        1
      ],
      "min": [
        -1,
        -1,
        -1
      ],
      "type": "VEC3"
    },
    {
      "bufferView": 3,
      "byteOffset": 33200,
      "componentType": 5126,
      "count": 192,
      "max": [
        1,
        1,
        1,
        1
      ],
      "min": [
        -1,
        -0.80866801738739014,
        -1,
        1
      ],
      "type": "VEC4"
    },
    {
      "bufferView": 1,
      "byteOffset": 16600,
      "componentType": 5126,
      "count": 192,
      "max": [
        0.97239202260971069,
        0.98997402191162109
      ],
      "min": [
        0.0099999997764825821,
        0.2544809877872467
      ],
      "type": "VEC2"
    },
    {
      "bufferView": 0,
      "byteOffset": 29160,
      "componentType": 5125,
      "count": 396,
      "max": [
        191
      ],
      "min": [
        0
      ],
      "type": "SCALAR"
    },
    {
      "bufferView": 2,
      "byteOffset": 54408,
      "componentType": 5126,
      "count": 577,
      "max": [
        0.71728098392486572,
        0.50647997856140137,
        -0.47044101357460022
      ],
      "min": [
        -0.71728098392486572,
        0.45127299427986145,
        -0.52706801891326904
      ],
      "type": "VEC3"
    },
    {
      "bufferView": 2,
      "byteOffset": 61332,
      "componentType": 5126,
      "count": 577,
      "max": [
        1,
        0.97492837905883789,
        1
      ],
      "min": [
        -1,
        -0.97492861747741699,
        -1
      ],
      "type": "VEC3"
    },
    {
      "bufferView": 3,
      "byteOffset": 36272,
      "componentType": 5126,
      "count": 577,
      "max": [
        0.028961200267076492,
        1,
        0.97492802143096924,
        1
      ],
      "min": [
        -1,
        -1,
        -1,
        1
      ],
      "type": "VEC4"
    },
    {
      "bufferView": 1,
      "byteOffset": 18136,
      "componentType": 5126,
      "count": 577,
      "max": [
        0.98838800191879272,
        0.98973101377487183
      ],
      "min": [
        0.12962199747562408,
        0.21733400225639343
      ],
      "type": "VEC2"
    },
    {
      "bufferView": 0,
      "byteOffset": 30744,
      "componentType": 5125,
      "count": 1932,
      "max": [
        576
      ],
      "min": [
        0
      ],
      "type": "SCALAR"
    },
    {
      "bufferView": 2,
      "byteOffset": 68256,
      "componentType": 5126,
      "count": 2117,
      "max": [
        0.49251800775527954,
        0.73575699329376221,
        0.83461302518844604
      ],
      "min": [
        -0.51721298694610596,
        -0.73575699329376221,
        -0.77354401350021362
      ],
      "type": "VEC3"
    },
    {
      "bufferView": 2,
      "byteOffset": 93660,
      "componentType": 5126,
      "count": 2117,
      "max": [
        1,
        1,
        1
      ],
      "min": [
        -1,
        -1,
        -1
      ],
      "type": "VEC3"
    },
    {
      "bufferView": 3,
      "byteOffset": 45504,
      "componentType": 5126,
      "count": 2117,
      "max": [
        0.80901801586151123,
        1,
        1,
        1
      ],
      "min": [
        -1,
        -1,
        -1,
        1
      ],
      "type": "VEC4"
    },
    {
      "bufferView": 1,
      "byteOffset": 22752,
      "componentType": 5126,
      "count": 2117,
      "max": [
        0.99000000953674316,
        0.98878800868988037
      ],
      "min": [
        0.0099999997764825821,
        0.0099999997764825821
      ],
      "type": "VEC2"
    },
    {
      "bufferView": 0,
      "byteOffset": 38472,
      "componentType": 5125,
      "count": 4980,
      "max": [
        2116
      ],
      "min": [
        0
      ],
      "type": "SCALAR"
    },
    {
      "bufferView": 2,
      "byteOffset": 119064,
      "componentType": 5126,
      "count": 144,
      "max": [
        0.47132301330566406,
        0.62468999624252319,
        -0.44272801280021667
      ],
      "min": [
        -0.49420499801635742,
        0.44546601176261902,
        -0.57092499732971191
      ],
      "type": "VEC3"
    },
    {
      "bufferView": 2,
      "byteOffset": 120792,
      "componentType": 5126,
      "count": 144,
      "max": [
        1,
        1,
        1
      ],
      "min": [
        -1,
        -1,
        -1
      ],
      "type": "VEC3"
    },
    {
      "bufferView": 3,
      "byteOffset": 79376,
      "componentType": 5126,
      "count": 144,
      "max": [
        1,
        1,
        1.8452999938745052e-05,
        1
      ],
      "min": [
        -1,
        -1,
        -0.01623079925775528,
        1
      ],
      "type": "VEC4"
    },
    {
      "bufferView": 1,
      "byteOffset": 39688,
      "componentType": 5126,
      "count": 144,
      "max": [
        0.9769899845123291,
        0.98425298929214478
      ],
      "min": [
        0.0099999997764825821,
        0.4859279990196228
      ],
      "type": "VEC2"
    },
    {
      "bufferView": 0,
      "byteOffset": 58392,
      "componentType": 5125,
      "count": 312,
      "max": [
        143
      ],
      "min": [
        0
      ],
      "type": "SCALAR"
    },
    {
      "bufferView": 2,
      "byteOffset": 122520,
      "componentType": 5126,
      "count": 192,
      "max": [
        0.25679400563240051,
        -0.26229900121688843,
        0.95475900173187256
      ],
      "min": [
        -0.231672003865242,
        -0.36632400751113892,
        -0.9332510232925415
      ],
      "type": "VEC3"
    },
    {
      "bufferView": 2,
      "byteOffset": 124824,
      "componentType": 5126,
      "count": 192,
      "max": [
        0.98943686485290527,
        0.96697485446929932,
        0.97581809759140015
      ],
      "min": [
        -0.98943698406219482,
        -0.97581762075424194,
        -0.97581809759140015
      ],
      "type": "VEC3"
    },
    {
      "bufferView": 3,
      "byteOffset": 81680,
      "componentType": 5126,
      "count": 192,
      "max": [
        0.99792200326919556,
        0.40049099922180176,
        0.99929100275039673,
        1
      ],
      "min": [
        -0.99792301654815674,
        -0.40048500895500183,
        -0.99929100275039673,
        1
      ],
      "type": "VEC4"
    },
    {
      "bufferView": 1,
      "byteOffset": 40840,
      "componentType": 5126,
      "count": 192,
      "max": [
        0.93738502264022827,
        0.80035400390625
      ],
      "min": [
        0.0099999997764825821,
        0.0099999997764825821
      ],
      "type": "VEC2"
    },
    {
      "bufferView": 0,
      "byteOffset": 59640,
      "componentType": 5125,
      "count": 648,
      "max": [
        191
      ],
      "min": [
        0
      ],
      "type": "SCALAR"
    }
  ],
  "asset": {
    "extras": {
      "author": "carloakuma (https://sketchfab.com/carloakuma)",
      "license": "CC-BY-4.0 (http://creativecommons.org/licenses/by/4.0/)",
      "source": "https://sketchfab.com/models/429192dc57f64b1fa9b3cdf4dada4420",
      "title": "Simple Bench Press"
    },
    "generator": "Sketchfab-3.54.3",
    "version": "2.0"
  },
  "bufferViews": [
    {
      "buffer": 0,
      "byteLength": 62232,
      "byteOffset": 0,
      "name": "floatBufferViews",
      "target": 34963
    },
    {
      "buffer": 0,
      "byteLength": 42376,
      "byteOffset": 62232,
      "byteStride": 8,
      "name": "floatBufferViews",
      "target": 34962
    },
    {
      "buffer": 0,
      "byteLength": 127128,
      "byteOffset": 104608,
      "byteStride": 12,
      "name": "floatBufferViews",
      "target": 34962
    },
    {
      "buffer": 0,
      "byteLength": 84752,
      "byteOffset": 231736,
      "byteStride": 16,
      "name": "floatBufferViews",
      "target": 34962
    }
  ],
  "buffers": [
    {
      "byteLength": 316488,
      "uri": "scene.bin"
    }
  ],
  "images": [
    {
      "uri": "textures/19___Default_metallicRoughness.png"
    },
    {
      "uri": "textures/19___Default_baseColor.jpeg"
    },
    {
      "uri": "textures/19___Default_normal.png"
    },
    {
      "uri": "textures/DefaultMaterial_baseColor.jpeg"
    },
    {
      "uri": "textures/DefaultMaterial_metallicRoughness.png"
    },
    {
      "uri": "textures/DefaultMaterial_normal.png"
    }
  ],
  "materials": [
    {
      "doubleSided": true,
      "emissiveFactor": [
        0,
        0,
        0
      ],
      "name": "19___Default",
      "normalTexture": {
        "index": 2,
        "scale": 1,
        "texCoord": 0
      },
      "occlusionTexture": {
        "index": 0,
        "strength": 1,
        "texCoord": 0
      },
      "pbrMetallicRoughness": {
        "baseColorFactor": [
          1,
          1,
          1,
          1
        ],
        "baseColorTexture": {
          "index": 1,
          "texCoord": 0
        },
        "metallicFactor": 1,
        "metallicRoughnessTexture": {
          "index": 0,
          "texCoord": 0
        },
        "roughnessFactor": 1
      }
    },
    {
      "doubleSided": true,
      "emissiveFactor": [
        0,
        0,
        0
      ],
      "name": "DefaultMaterial",
      "normalTexture": {
        "index": 5,
        "scale": 1,
        "texCoord": 0
      },
      "pbrMetallicRoughness": {
        "baseColorFactor": [
          1,
          1,
          1,
          1
        ],
        "baseColorTexture": {
          "index": 3,
          "texCoord": 0
        },
        "metallicFactor": 1,
        "metallicRoughnessTexture": {
          "index": 4,
          "texCoord": 0
        },
        "roughnessFactor": 1
      }
    }
  ],
  "meshes": [
    {
      "name": "defaultMaterial",
      "primitives": [
        {
          "attributes": {
            "NORMAL": 1,
            "POSITION": 0,
            "TANGENT": 2,
            "TEXCOORD_0": 3
          },
          "indices": 4,
          "material": 1,
          "mode": 4
        }
      ]
    },
    {
      "name": "defaultMaterial",
      "primitives": [
        {
          "attributes": {
            "NORMAL": 6,
            "POSITION": 5,
            "TANGENT": 7,
            "TEXCOORD_0": 8
          },
          "indices": 9,
          "material": 1,
          "mode": 4
        }
      ]
    },
    {
      "name": "defaultMaterial",
      "primitives": [
        {
          "attributes": {
            "NORMAL": 11,
            "POSITION": 10,
            "TANGENT": 12,
            "TEXCOORD_0": 13
          },
          "indices": 14,
          "material": 1,
          "mode": 4
        }
      ]
    },
    {
      "name": "defaultMaterial",
      "primitives": [
        {
          "attributes": {
            "NORMAL": 16,
            "POSITION": 15,
            "TANGENT": 17,
            "TEXCOORD_0": 18
          },
          "indices": 19,
          "material": 1,
          "mode": 4
        }
      ]
    },
    {
      "name": "defaultMaterial",
      "primitives": [
        {
          "attributes": {
            "NORMAL": 21,
            "POSITION": 20,
            "TANGENT": 22,
            "TEXCOORD_0": 23
          },
          "indices": 24,
          "material": 1,
          "mode": 4
        }
      ]
    },
    {
      "name": "defaultMaterial",
      "primitives": [
        {
          "attributes": {
            "NORMAL": 26,
            "POSITION": 25,
            "TANGENT": 27,
            "TEXCOORD_0": 28
          },
          "indices": 29,
          "material": 1,
          "mode": 4
        }
      ]
    },
    {
      "name": "defaultMaterial",
      "primitives": [
        {
          "attributes": {
            "NORMAL": 31,
            "POSITION": 30,
            "TANGENT": 32,
            "TEXCOORD_0": 33
          },
          "indices": 34,
          "material": 0,
          "mode": 4
        }
      ]
    }
  ],
  "nodes": [
    {
      "children": [
        1
      ],
      "name": "RootNode (gltf orientation matrix)",
      "rotation": [
        -0.70710678118654746,
        -0,
        -0,
        0.70710678118654757
      ]
    },
    {
      "children": [
        2
      ],
      "name": "RootNode (model correction matrix)"
    },
    {
      "children": [
        3,
        5,
        7,
        9,
        11,
        13,
        15
      ],
      "matrix": [
        1,
        0,
        0,
        0,
        0,
        -4.3711390063094768e-08,
        0.999999999999999,
        0,
        0,
        -0.999999999999999,
        -4.3711390063094768e-08,
        0,
        0,
        0,
        0,
        1
      ],
      "name": "Collada visual scene group"
    },
    {
      "children": [
        4
      ],
      "name": "Stance"
    },
    {
      "mesh": 0,
      "name": "defaultMaterial"
    },
    {
      "children": [
        6
      ],
      "name": "Weight"
    },
    {
      "mesh": 1,
      "name": "defaultMaterial"
    },
    {
      "children": [
        8
      ],
      "name": "machine2"
    },
    {
      "mesh": 2,
      "name": "defaultMaterial"
    },
    {
      "children": [
        10
      ],
      "name": "Barbell"
    },
    {
      "mesh": 3,
      "name": "defaultMaterial"
    },
    {
      "children": [
        12
      ],
      "name": "Machine"
    },
    {
      "mesh": 4,
      "name": "defaultMaterial"
    },
    {
      "children": [
        14
      ],
      "name": "WeightHolder"
    },
    {
      "mesh": 5,
      "name": "defaultMaterial"
    },
    {
      "children": [
        16
      ],
      "name": "Bench"
    },
    {
      "mesh": 6,
      "name": "defaultMaterial"
    }
  ],
  "samplers": [
    {
      "magFilter": 9729,
      "minFilter": 9987,
      "wrapS": 10497,
      "wrapT": 10497
    }
  ],
  "scene": 0,
  "scenes": [
    {
      "name": "OSG_Scene",
      "nodes": [
        0
      ]
    }
  ],
  "textures": [
    {
      "sampler": 0,
      "source": 0
    },
    {
      "sampler": 0,
      "source": 1
    },
    {
      "sampler": 0,
      "source": 2
    },
    {
      "sampler": 0,
      "source": 3
    },
    {
      "sampler": 0,
      "source": 4
    },
    {
      "sampler": 0,
      "source": 5
    }
  ]
}

